<svg width="16" height="12" viewBox="0 0 16 12" fill="none" xmlns="http://www.w3.org/2000/svg">
<path d="M13.1981 0.994734C12.2421 0.534315 11.2169 0.195098 10.1449 0.000815003C10.1254 -0.00293461 10.1059 0.00643587 10.0959 0.0251773C9.96401 0.27131 9.81796 0.592411 9.71568 0.844794C8.56275 0.663633 7.41574 0.663633 6.28645 0.844794C6.18415 0.586801 6.0328 0.27131 5.90036 0.0251773C5.8903 0.00706117 5.8708 -0.00230931 5.85128 0.000814999C4.77994 0.194478 3.75473 0.533694 2.79808 0.994734C2.7898 0.998482 2.7827 1.00473 2.77799 1.01285C0.83337 4.06208 0.300656 7.03635 0.561988 9.97375C0.56317 9.98812 0.570856 10.0019 0.581499 10.0106C1.86451 10.9995 3.10732 11.5999 4.32705 11.9978C4.34657 12.0041 4.36725 11.9966 4.37968 11.9797C4.6682 11.5662 4.9254 11.1301 5.14592 10.6715C5.15894 10.6447 5.14651 10.6128 5.11992 10.6022C4.71196 10.4398 4.3235 10.2417 3.94983 10.0169C3.92027 9.99874 3.91791 9.95437 3.9451 9.93313C4.02373 9.87129 4.10239 9.80694 4.17747 9.74197C4.19106 9.73011 4.20999 9.7276 4.22596 9.7351C6.6808 10.9114 9.33846 10.9114 11.7643 9.7351C11.7803 9.72698 11.7992 9.72949 11.8134 9.74135C11.8885 9.80632 11.9672 9.87129 12.0464 9.93313C12.0736 9.95437 12.0718 9.99874 12.0422 10.0169C11.6686 10.2461 11.2801 10.4398 10.8716 10.6016C10.845 10.6122 10.8331 10.6447 10.8462 10.6715C11.0714 11.1295 11.3286 11.5655 11.6118 11.9791C11.6236 11.9966 11.6449 12.0041 11.6644 11.9978C12.8901 11.5999 14.1329 10.9995 15.4159 10.0106C15.4271 10.0019 15.4342 9.98874 15.4354 9.97438C15.7482 6.57842 14.9116 3.62853 13.2176 1.01347C13.2135 1.00473 13.2064 0.998482 13.1981 0.994734ZM5.51251 8.18518C4.77344 8.18518 4.16446 7.47302 4.16446 6.59842C4.16446 5.72381 4.76163 5.01165 5.51251 5.01165C6.2693 5.01165 6.87238 5.73006 6.86055 6.59842C6.86055 7.47302 6.26338 8.18518 5.51251 8.18518ZM10.4967 8.18518C9.75766 8.18518 9.14868 7.47302 9.14868 6.59842C9.14868 5.72381 9.74583 5.01165 10.4967 5.01165C11.2535 5.01165 11.8566 5.73006 11.8448 6.59842C11.8448 7.47302 11.2535 8.18518 10.4967 8.18518Z" fill="white"/>
</svg>
