<svg width="19" height="17" viewBox="0 0 19 17" fill="none" xmlns="http://www.w3.org/2000/svg">
<path d="M18.7933 10.6383V11.6046C18.7933 11.66 18.7594 11.7094 18.7101 11.7309C18.408 11.8604 17.374 12.335 16.944 12.933C15.8467 14.4602 15.0084 16.644 13.1343 16.644H5.31629C2.5454 16.644 0.299988 14.3909 0.299988 11.6107V11.5213C0.299988 11.4474 0.360078 11.3873 0.434058 11.3873H4.79234C4.87862 11.3873 4.9418 11.4674 4.93412 11.5522C4.90328 11.8357 4.95569 12.1255 5.08976 12.389C5.34866 12.9145 5.88497 13.2428 6.46442 13.2428H8.62199V11.5583H6.48908C6.37967 11.5583 6.31496 11.432 6.37814 11.3426C6.40124 11.3071 6.42746 11.2702 6.45518 11.2286C6.65708 10.9419 6.94526 10.4965 7.23191 9.98949C7.42763 9.64737 7.61717 9.28212 7.76975 8.91534C7.80059 8.84907 7.82522 8.78124 7.84988 8.71497C7.89149 8.59785 7.93466 8.48844 7.96547 8.37903C7.99631 8.28654 8.02094 8.18946 8.0456 8.09853C8.11805 7.78722 8.14886 7.45743 8.14886 7.11531C8.14886 6.98124 8.14271 6.84099 8.13038 6.70692C8.1242 6.56052 8.10572 6.41409 8.08721 6.26769C8.07488 6.13824 8.05178 6.01032 8.02712 5.87625C7.99631 5.68053 7.95314 5.48637 7.90382 5.29062L7.88687 5.21667C7.84988 5.08257 7.81907 4.95468 7.77593 4.82061C7.65416 4.39986 7.51394 3.98994 7.36598 3.60621C7.31204 3.45363 7.25039 3.30723 7.18874 3.16083C7.09784 2.94045 7.00535 2.74011 6.9206 2.55054C6.87746 2.46423 6.84047 2.38563 6.80348 2.3055C6.76187 2.21457 6.71873 2.12364 6.67556 2.03736C6.64475 1.97109 6.60929 1.90944 6.58463 1.84779L6.32111 1.3608C6.28412 1.29453 6.34577 1.21593 6.41819 1.23597L8.0672 1.68288H8.07182C8.07488 1.68288 8.07644 1.68444 8.07797 1.68444L8.29526 1.74453L8.53415 1.81236L8.62199 1.83699V0.85686C8.62199 0.38373 9.0011 0 9.46961 0C9.70385 0 9.91652 0.0955498 10.0691 0.25119C10.2217 0.40686 10.3172 0.61953 10.3172 0.85686V2.31168L10.4929 2.36097C10.5068 2.36562 10.5206 2.37177 10.533 2.38101C10.5761 2.41338 10.6377 2.46114 10.7163 2.51973C10.778 2.56902 10.8443 2.62914 10.9244 2.69079C11.0831 2.81868 11.2727 2.98359 11.4807 3.17316C11.5362 3.22092 11.5902 3.27024 11.6395 3.31956C11.9076 3.56922 12.2082 3.86202 12.4948 4.18566C12.5749 4.27659 12.6535 4.36905 12.7337 4.46613C12.8138 4.56477 12.8986 4.66185 12.9725 4.75896C13.0696 4.88841 13.1744 5.02248 13.2654 5.16273C13.3085 5.229 13.3578 5.2968 13.3994 5.36307C13.5166 5.54028 13.6198 5.7237 13.7185 5.90709C13.7601 5.99184 13.8032 6.0843 13.8402 6.17523C13.9496 6.42027 14.0359 6.66993 14.0914 6.91959C14.1083 6.97353 14.1207 7.03209 14.1268 7.0845V7.09683C14.1453 7.17078 14.1515 7.24938 14.1576 7.32951C14.1823 7.58535 14.17 7.84116 14.1145 8.09853C14.0914 8.20797 14.0606 8.3112 14.0236 8.42064C13.9866 8.52543 13.9496 8.63484 13.9018 8.7381C13.8094 8.9523 13.6999 9.16653 13.5705 9.36687C13.5289 9.44085 13.4796 9.51945 13.4302 9.59343C13.3763 9.672 13.3208 9.74598 13.2715 9.81843C13.2037 9.91089 13.1313 10.008 13.0573 10.0943C12.991 10.1852 12.9232 10.2761 12.8493 10.3563C12.746 10.478 12.6474 10.5936 12.5441 10.7046C12.4825 10.777 12.4162 10.851 12.3484 10.9172C12.2821 10.9912 12.2143 11.0575 12.1527 11.1191C12.0494 11.2224 11.9631 11.3025 11.8907 11.3688L11.7212 11.5244C11.6965 11.546 11.6641 11.5583 11.6302 11.5583H10.3172V13.2428H11.9693C12.3391 13.2428 12.6905 13.1118 12.9741 12.8714C13.0712 12.7866 13.495 12.4198 13.9958 11.8666C14.0128 11.8481 14.0344 11.8342 14.059 11.828L18.6223 10.5089C18.707 10.4842 18.7933 10.5489 18.7933 10.6383Z" fill="white"/>
</svg>
