<svg width="16" height="14" viewBox="0 0 16 14" fill="none" xmlns="http://www.w3.org/2000/svg">
<path d="M1.01303 6.28056L4.4616 7.56647L5.80595 11.8918C5.8644 12.184 6.2151 12.2425 6.4489 12.0671L8.37775 10.489C8.5531 10.3136 8.84536 10.3136 9.07916 10.489L12.5277 13.0023C12.7615 13.1777 13.1122 13.0608 13.1707 12.7685L15.7425 0.493992C15.8009 0.201741 15.5087 -0.0905074 15.2164 0.0263929L1.01303 5.52071C0.662325 5.63761 0.662325 6.16366 1.01303 6.28056ZM5.6306 6.92351L12.4108 2.77355C12.5277 2.7151 12.6446 2.89045 12.5277 2.9489L6.97495 8.15097C6.7996 8.32632 6.62425 8.56012 6.62425 8.85237L6.4489 10.2552C6.4489 10.4305 6.15665 10.489 6.0982 10.2552L5.39679 7.68336C5.22144 7.39111 5.33835 7.04041 5.6306 6.92351Z" fill="white"/>
</svg>
