<svg width="15" height="13" viewBox="0 0 15 13" fill="none" xmlns="http://www.w3.org/2000/svg">
<path d="M14.95 2.175C14.425 2.4 13.825 2.55 13.225 2.625C13.825 2.25 14.35 1.65 14.575 0.975002C13.975 1.35 13.375 1.575 12.625 1.725C12.1 1.125 11.275 0.75 10.45 0.75C8.79999 0.75 7.44999 2.1 7.44999 3.75C7.44999 3.975 7.45 4.2 7.525 4.425C5.05 4.275 2.8 3.075 1.3 1.275C1.075 1.725 0.924995 2.25 0.924995 2.775C0.924995 3.825 1.45 4.725 2.275 5.25C1.75 5.25 1.3 5.1 0.924995 4.875C0.924995 6.3 1.97499 7.575 3.32499 7.8C3.09999 7.875 2.8 7.875 2.5 7.875C2.275 7.875 2.125 7.875 1.9 7.8C2.275 9 3.4 9.9 4.75 9.9C3.7 10.725 2.425 11.175 1 11.175C0.775 11.175 0.55 11.175 0.25 11.1C1.6 11.925 3.175 12.45 4.9 12.45C10.45 12.45 13.45 7.875 13.45 3.9V3.525C14.05 3.3 14.575 2.775 14.95 2.175Z" fill="white"/>
</svg>
